HIERARCHY
ROOT Hips
{
	OFFSET 0.000000 0.000000 0.000000 
	CHANNELS 6 Xposition Yposition Zposition Yrotation Zrotation Xrotation 
	JOINT Lumbar
	{
		OFFSET 0.000000 0.000000 0.000000 
		CHANNELS 3 Zrotation Xrotation Yrotation
		JOINT Neck
		{
			OFFSET 0.000000 0.445665 0.000000 
			CHANNELS 3 Zrotation Xrotation Yrotation
			End Site
			{
				OFFSET 0.000000 0.227535 0.000000 
			}
		}
		JOINT RightShoulder
		{
			OFFSET 0.019635 0.377685 0.194865 
			CHANNELS 3 Zrotation Xrotation Yrotation
			JOINT RightElbow
			{
				OFFSET 0.000000 -0.243375 0.000000 
				CHANNELS 2 Zrotation Yrotation
				JOINT RightWrist
				{
					OFFSET 0.000000 -0.264825 0.000000 
					CHANNELS 2 Zrotation Xrotation
					End Site
					{
						OFFSET 0.006600 -0.176220 0.000990 
					}
				}
			}
		}
		JOINT LeftShoulder
		{
			OFFSET 0.019635 0.377685 -0.194865 
			CHANNELS 3 Zrotation Xrotation Yrotation
			JOINT LeftElbow
			{
				OFFSET 0.000000 -0.243375 0.000000 
				CHANNELS 2 Zrotation Yrotation
				JOINT LeftWrist
				{
					OFFSET 0.000000 -0.264825 0.000000 
					CHANNELS 2 Zrotation Xrotation
					End Site
					{
						OFFSET 0.006600 -0.176220 -0.000990 
					}
				}
			}
		}
	}
	JOINT RightHip
	{
		OFFSET 0.052140 -0.069960 0.075570 
		CHANNELS 3 Zrotation Xrotation Yrotation
		JOINT RightKnee
		{
			OFFSET 0.000000 -0.402270 0.000000 
			CHANNELS 1 Zrotation
			JOINT RightAnkle
			{
				OFFSET 0.000000 -0.404085 0.000000 
				CHANNELS 3 Zrotation Xrotation Yrotation
				End Site
				{
					OFFSET 0.204105 -0.089430 0.008415 
				}
			}
		}
	}
	JOINT LeftHip
	{
		OFFSET 0.052140 -0.069960 -0.075570 
		CHANNELS 3 Zrotation Xrotation Yrotation
		JOINT LeftKnee
		{
			OFFSET 0.000000 -0.402270 0.000000 
			CHANNELS 1 Zrotation
			JOINT LeftAnkle
			{
				OFFSET 0.000000 -0.404085 0.000000 
				CHANNELS 3 Zrotation Xrotation Yrotation
				End Site
				{
					OFFSET 0.204105 -0.089430 -0.008415 
				}
			}
		}
	}
}
MOTION
Frames: 14
Frame Time: 0.02
-0.00654 -0.00192 0.00294 23.69314 -17.33849 -4.25674 39.905 -0.32182 -8.13842 -10.89706 4.31973 -0.38773 -11.7487 -8.4308 -19.89714 20.28501 93.77708 6.40942 1.12573 -21.89134 8.54321 -5.76034 29.8517 -78.18183 6.87869 3.33419 33.16311 -2.84552 -7.1612 -21.32322 -6.35319 -3.72101 -2.66485 34.99138 3.19863 2.24429 -25.42309 -6.58523 3.79566 2.78761
-0.00553 -0.00162 0.00264 23.75274 -17.25499 -4.29711 40.04506 -0.33415 -8.26351 -11.06856 4.32008 -0.38845 -12.27672 -8.3453 -19.81857 20.3199 94.09791 6.56861 1.1379 -22.11914 8.23692 -4.63469 29.90115 -84.18845 8.80622 2.36047 32.91463 -2.80196 -7.16825 -21.30429 -6.32025 -3.76618 -2.67888 34.80371 3.2093 2.05188 -25.3841 -6.61174 3.84024 2.79805
-0.00451 -0.00132 0.00234 23.81226 -17.17161 -4.33735 40.1849 -0.34649 -8.38825 -11.23984 4.32046 -0.38916 -12.80413 -8.26009 -19.7397 20.35521 94.41824 6.72766 1.15007 -22.34643 7.93196 -3.51379 29.9506 -90.16958 10.72575 1.39094 32.66654 -2.75849 -7.17518 -21.28539 -6.28741 -3.81127 -2.6929 34.61626 3.22006 1.86055 -25.34519 -6.63813 3.88464 2.80843
-0.0035 -0.00101 0.00203 23.87169 -17.08836 -4.37759 40.32457 -0.35879 -8.51296 -11.41085 4.32081 -0.38987 -13.33068 -8.17485 -19.66129 20.39006 94.73812 6.8864 1.16221 -22.57356 7.62671 -2.39191 29.99991 -96.15611 12.64685 0.42048 32.41878 -2.71505 -7.18219 -21.26651 -6.25457 -3.85631 -2.70689 34.42912 3.23073 1.66883 -25.30631 -6.66455 3.92907 2.81883
-0.00249 -0.00071 0.00173 23.93118 -17.005 -4.41795 40.46437 -0.37105 -8.63801 -11.58201 4.32112 -0.39058 -13.85749 -8.0893 -19.58336 20.42435 95.05842 7.04518 1.17435 -22.80111 7.31991 -1.26455 30.04921 -102.17198 14.57715 -0.55481 32.17073 -2.67156 -7.1894 -21.24761 -6.22165 -3.90142 -2.72089 34.24184 3.24125 1.47582 -25.26739 -6.6911 3.97371 2.82932
-0.00147 -0.00041 0.00143 23.99078 -16.92158 -4.45794 40.6043 -0.38357 -8.76206 -11.75354 4.32165 -0.3913 -14.38615 -8.0048 -19.5025 20.46183 95.37887 7.20482 1.18657 -23.02784 7.01879 -0.15713 30.09898 -108.08053 16.4742 -1.5123 31.92256 -2.62813 -7.19573 -21.22875 -6.18899 -3.94646 -2.73494 34.05406 3.2525 1.28801 -25.22851 -6.71714 4.01759 2.83946
-0.00046 -0.00011 0.00113 24.05004 -16.83844 -4.49864 40.74381 -0.39554 -8.88803 -11.92402 4.32171 -0.39201 -14.91039 -7.91832 -19.4277 20.49268 95.69832 7.36242 1.19859 -23.25596 6.70678 0.9884 30.14767 -114.19471 18.43479 -2.50395 31.67501 -2.58461 -7.20375 -21.20979 -6.15582 -3.99159 -2.74887 33.86758 3.26229 1.09003 -25.18955 -6.74417 4.06295 2.85028
0.00055 0.00019 0.00083 24.10969 -16.75493 -4.53868 40.88369 -0.40804 -9.01215 -12.09568 4.32227 -0.39272 -15.43892 -7.83361 -19.34719 20.52995 96.01933 7.52218 1.21086 -23.48285 6.40442 2.10024 30.19748 -120.12623 20.3391 -3.4652 31.42671 -2.54118 -7.21034 -21.19098 -6.12313 -4.03665 -2.76292 33.67973 3.27341 0.90127 -25.15071 -6.7703 4.10695 2.86049
0.00159 0.0005 0.00052 24.16957 -16.67137 -4.57793 41.02419 -0.4211 -9.13437 -12.26809 4.32316 -0.39343 -15.97225 -7.75122 -19.26004 20.574 96.33996 7.68361 1.2232 -23.70816 6.1154 3.16538 30.24823 -125.80807 22.16587 -4.38512 31.17802 -2.4978 -7.21467 -21.17212 -6.09099 -4.08158 -2.7771 33.49073 3.28627 0.72441 -25.11183 -6.79531 4.14926 2.86991
0.00253 0.0008 0.00024 24.22741 -16.58927 -4.62179 41.16166 -0.43068 -9.26862 -12.43411 4.32131 -0.39416 -16.47667 -7.65594 -19.21209 20.57584 96.65592 7.83253 1.2344 -23.94233 5.75427 4.48264 30.2923 -132.84712 24.41249 -5.53029 30.93315 -2.45398 -7.23049 -21.15284 -6.05555 -4.12715 -2.79047 33.30992 3.28945 0.48098 -25.07262 -6.8267 4.20122 2.88374
0.00367 0.0011 -0.00011 24.28997 -16.50337 -4.65587 41.30514 -0.44779 -9.37678 -12.61488 4.32578 -0.39485 -17.04275 -7.58759 -19.08086 20.66871 96.98604 8.00961 1.24848 -24.15792 5.54226 5.2786 30.35125 -137.07375 25.79019 -6.20829 30.67927 -2.4112 -7.22304 -21.13489 -6.02719 -4.17139 -2.80559 33.11088 3.31281 0.37676 -25.03447 -6.84465 4.23286 2.88832
0.00535 0.00137 -0.00066 24.3621 -16.41277 -4.66321 41.46884 -0.48415 -9.41789 -12.82656 4.34382 -0.39544 -17.77053 -7.59539 -18.73853 20.99343 97.33263 8.25109 1.26962 -24.32085 5.76879 4.54127 30.44413 -133.07786 24.61865 -5.52386 30.40791 -2.37043 -7.14286 -21.11677 -6.01748 -4.21176 -2.82519 32.86859 3.39419 0.66863 -24.996 -6.82534 4.20804 2.8668
0.00726 0.00163 -0.0013 24.43949 -16.31724 -4.66065 41.63805 -0.52826 -9.43166 -13.05506 4.36916 -0.396 -18.55861 -7.62927 -18.31979 21.40992 97.70602 8.52369 1.29582 -24.46525 6.13998 3.29859 30.55268 -126.34539 22.6035 -4.38425 30.12611 -2.33093 -7.04091 -21.10053 -6.01508 -4.25081 -2.84658 32.6065 3.49527 1.0977 -24.95907 -6.7926 4.163 2.83613
0.00908 0.0019 -0.00191 24.51686 -16.22033 -4.66257 41.80206 -0.56987 -9.45536 -13.28178 4.39327 -0.39658 -19.32792 -7.65047 -17.91127 21.79988 98.07107 8.78985 1.3177 -24.61942 6.42534 2.35552 30.65922 -121.20281 21.08413 -3.50675 29.84438 -2.29129 -6.95477 -21.08613 -6.00972 -4.29064 -2.86736 32.34933 3.58567 1.45477 -24.92368 -6.76628 4.12766 2.81006
